<svg width="3052" height="668" viewBox="0 0 3052 668" fill="none" xmlns="http://www.w3.org/2000/svg">
<g clip-path="url(#clip0_2002_103)">
<mask id="mask0_2002_103" style="mask-type:alpha" maskUnits="userSpaceOnUse" x="66" y="84" width="500" height="500">
<rect x="66" y="84" width="500" height="500" rx="47" fill="white"/>
</mask>
<g mask="url(#mask0_2002_103)">
<path d="M545.44 618.567C571.089 632.266 611.993 632.848 638.946 620.319V641.465H32.1088V519.023L195.586 431.71L545.44 618.567ZM638.946 435.238V533.858L321.64 364.385L413.963 315.075L638.946 435.238ZM638.946 300.587L463.755 207.019C456.857 203.335 448.854 200.601 440.317 198.814C415.322 193.133 385.299 195.735 364.913 206.624L32.1088 384.373V64.0415H638.946V300.587Z" fill="url(#paint0_linear_2002_103)"/>
</g>
</g>
<path d="M731.3 458V346.1H688.1V303.2H731.3V291.8C731.3 251.6 764.3 229.1 821.3 229.1C849.2 229.1 877.1 236.3 897.2 248.9L881.9 289.7C867.8 281 850.4 275.9 834.8 275.9C814.4 275.9 802.4 284.6 802.4 299.3V303.2H885.5V346.1H802.4V458H731.3ZM1024.75 462.8C944.947 462.8 890.947 430.7 890.947 380.3C890.947 332 941.047 298.1 1012.75 298.1C1083.25 298.1 1129.75 330.8 1129.75 380.6C1129.75 385.1 1129.15 391.7 1127.65 396.8H965.647C973.747 414.8 1000.75 422 1029.85 422C1060.45 422 1091.35 415.4 1107.25 406.4L1126.75 440C1105.75 453.5 1066.15 462.8 1024.75 462.8ZM964.447 366.5H1058.35C1057.45 348.8 1037.05 336.8 1012.15 336.8C986.647 336.8 967.147 349.1 964.447 366.5ZM1198.93 458L1126.93 303.2H1200.13L1241.23 402.5H1241.53L1291.03 303.2H1354.93L1404.13 404.3H1404.43L1445.53 303.2H1519.03L1447.33 458H1371.13L1323.13 358.1H1322.53L1274.23 458H1198.93ZM1686.01 462.8C1647.01 462.8 1613.71 445.4 1601.71 418.1H1601.41L1592.11 458H1530.91V234.2H1602.01V342.8H1602.31C1614.31 315.8 1647.31 298.1 1686.01 298.1C1741.21 298.1 1777.21 330.8 1777.21 380.6C1777.21 430.4 1741.21 462.8 1686.01 462.8ZM1652.71 415.7C1685.11 415.7 1706.11 401.9 1706.11 380.6C1706.11 359.3 1685.11 345.2 1652.71 345.2C1620.61 345.2 1599.31 359.3 1599.31 380.6C1599.31 401.9 1620.61 415.7 1652.71 415.7ZM1796.05 458V234.2H1867.15V458H1796.05ZM2010.36 462.8C1935.36 462.8 1886.16 430.4 1886.16 380.6C1886.16 330.8 1935.36 298.1 2010.36 298.1C2085.66 298.1 2134.86 330.8 2134.86 380.6C2134.86 430.4 2085.66 462.8 2010.36 462.8ZM2010.36 421.4C2042.76 421.4 2063.76 405.2 2063.76 380.6C2063.76 356 2042.76 339.8 2010.36 339.8C1977.96 339.8 1956.96 356 1956.96 380.6C1956.96 405.2 1977.96 421.4 2010.36 421.4ZM2274.67 462.8C2198.17 462.8 2148.07 430.4 2148.37 380.6C2148.37 330.8 2196.37 298.1 2268.37 298.1C2328.37 298.1 2372.47 322.1 2380.57 358.7L2314.57 369.5C2310.67 352.4 2294.77 341.6 2271.37 341.6C2239.57 341.6 2219.17 356.3 2219.17 380.6C2219.17 404.6 2240.47 419.6 2275.57 419.6C2305.87 419.6 2327.77 405.8 2332.57 383.3L2398.27 393.5C2389.57 435.2 2340.67 462.8 2274.67 462.8ZM2413.92 458V234.2H2485.02V349.1H2485.32L2545.32 303.2H2633.22L2554.92 362L2634.72 458H2553.42L2505.12 396.8L2485.02 411.8V458H2413.92ZM2748.44 462.8C2704.04 462.8 2656.34 452.9 2630.24 438.2L2648.84 402.2C2669.84 415.1 2708.84 424.7 2743.94 424.7C2777.54 424.7 2792.54 419.9 2792.54 412.7C2792.54 406.4 2781.44 403.1 2760.14 401.6L2721.74 398.6C2669.54 395 2642.84 382.4 2642.84 354.2C2642.84 315.5 2686.94 298.1 2747.84 298.1C2780.54 298.1 2812.94 305 2840.24 318.5L2823.44 351.2C2804.24 341.3 2774.84 333.8 2746.94 333.8C2722.04 333.8 2702.84 337.7 2702.84 345.5C2702.84 351.5 2712.14 353.9 2730.74 355.4L2769.14 358.7C2825.84 362.9 2854.34 376.1 2854.34 407C2854.34 445.7 2809.04 462.8 2748.44 462.8Z" fill="white"/>
<defs>
<linearGradient id="paint0_linear_2002_103" x1="335.527" y1="64.0415" x2="335.527" y2="641.465" gradientUnits="userSpaceOnUse">
<stop stop-color="#1024F0"/>
<stop offset="1" stop-color="#00DFFF"/>
</linearGradient>
<clipPath id="clip0_2002_103">
<rect width="500" height="500" fill="white" transform="translate(66 84)"/>
</clipPath>
</defs>
</svg>
