<svg width="2793" height="500" viewBox="0 0 2793 500" fill="none" xmlns="http://www.w3.org/2000/svg">
<g clip-path="url(#clip0_2008_19)">
<mask id="mask0_2008_19" style="mask-type:alpha" maskUnits="userSpaceOnUse" x="0" y="0" width="500" height="500">
<rect width="500" height="500" rx="47" fill="white"/>
</mask>
<g mask="url(#mask0_2008_19)">
<path d="M572.946 557.465H-33.8911V-19.9585H572.946V557.465Z" fill="url(#paint0_linear_2008_19)"/>
</g>
<rect width="142.906" height="743.48" rx="55" transform="matrix(0.882073 -0.471114 0.882073 0.471114 223.188 164.433)" fill="white"/>
<rect width="142.906" height="593.084" rx="55" transform="matrix(0.882073 -0.471114 0.882073 0.471114 4.81079 281.068)" fill="white"/>
<rect width="142.906" height="785.055" rx="55" transform="matrix(0.882073 0.471114 -0.882073 0.471114 347.426 96.7124)" fill="white"/>
</g>
<path d="M665.3 374V262.1H622.1V219.2H665.3V207.8C665.3 167.6 698.3 145.1 755.3 145.1C783.2 145.1 811.1 152.3 831.2 164.9L815.9 205.7C801.8 197 784.4 191.9 768.8 191.9C748.4 191.9 736.4 200.6 736.4 215.3V219.2H819.5V262.1H736.4V374H665.3ZM958.747 378.8C878.947 378.8 824.947 346.7 824.947 296.3C824.947 248 875.047 214.1 946.747 214.1C1017.25 214.1 1063.75 246.8 1063.75 296.6C1063.75 301.1 1063.15 307.7 1061.65 312.8H899.647C907.747 330.8 934.747 338 963.847 338C994.447 338 1025.35 331.4 1041.25 322.4L1060.75 356C1039.75 369.5 1000.15 378.8 958.747 378.8ZM898.447 282.5H992.347C991.447 264.8 971.047 252.8 946.147 252.8C920.647 252.8 901.147 265.1 898.447 282.5ZM1132.93 374L1060.93 219.2H1134.13L1175.23 318.5H1175.53L1225.03 219.2H1288.93L1338.13 320.3H1338.43L1379.53 219.2H1453.03L1381.33 374H1305.13L1257.13 274.1H1256.53L1208.23 374H1132.93ZM1620.01 378.8C1581.01 378.8 1547.71 361.4 1535.71 334.1H1535.41L1526.11 374H1464.91V150.2H1536.01V258.8H1536.31C1548.31 231.8 1581.31 214.1 1620.01 214.1C1675.21 214.1 1711.21 246.8 1711.21 296.6C1711.21 346.4 1675.21 378.8 1620.01 378.8ZM1586.71 331.7C1619.11 331.7 1640.11 317.9 1640.11 296.6C1640.11 275.3 1619.11 261.2 1586.71 261.2C1554.61 261.2 1533.31 275.3 1533.31 296.6C1533.31 317.9 1554.61 331.7 1586.71 331.7ZM1730.05 374V150.2H1801.15V374H1730.05ZM1944.36 378.8C1869.36 378.8 1820.16 346.4 1820.16 296.6C1820.16 246.8 1869.36 214.1 1944.36 214.1C2019.66 214.1 2068.86 246.8 2068.86 296.6C2068.86 346.4 2019.66 378.8 1944.36 378.8ZM1944.36 337.4C1976.76 337.4 1997.76 321.2 1997.76 296.6C1997.76 272 1976.76 255.8 1944.36 255.8C1911.96 255.8 1890.96 272 1890.96 296.6C1890.96 321.2 1911.96 337.4 1944.36 337.4ZM2208.67 378.8C2132.17 378.8 2082.07 346.4 2082.37 296.6C2082.37 246.8 2130.37 214.1 2202.37 214.1C2262.37 214.1 2306.47 238.1 2314.57 274.7L2248.57 285.5C2244.67 268.4 2228.77 257.6 2205.37 257.6C2173.57 257.6 2153.17 272.3 2153.17 296.6C2153.17 320.6 2174.47 335.6 2209.57 335.6C2239.87 335.6 2261.77 321.8 2266.57 299.3L2332.27 309.5C2323.57 351.2 2274.67 378.8 2208.67 378.8ZM2458.32 378.8C2413.92 378.8 2366.22 368.9 2340.12 354.2L2358.72 318.2C2379.72 331.1 2418.72 340.7 2453.82 340.7C2487.42 340.7 2502.42 335.9 2502.42 328.7C2502.42 322.4 2491.32 319.1 2470.02 317.6L2431.62 314.6C2379.42 311 2352.72 298.4 2352.72 270.2C2352.72 231.5 2396.82 214.1 2457.72 214.1C2490.42 214.1 2522.82 221 2550.12 234.5L2533.32 267.2C2514.12 257.3 2484.72 249.8 2456.82 249.8C2431.92 249.8 2412.72 253.7 2412.72 261.5C2412.72 267.5 2422.02 269.9 2440.62 271.4L2479.02 274.7C2535.72 278.9 2564.22 292.1 2564.22 323C2564.22 361.7 2518.92 378.8 2458.32 378.8Z" fill="#101828"/>
<defs>
<linearGradient id="paint0_linear_2008_19" x1="269.527" y1="-19.9585" x2="269.527" y2="557.465" gradientUnits="userSpaceOnUse">
<stop stop-color="#1024F0"/>
<stop offset="1" stop-color="#00DFFF"/>
</linearGradient>
<clipPath id="clip0_2008_19">
<rect width="500" height="500" fill="white"/>
</clipPath>
</defs>
</svg>
